<?xml version="1.0" standalone="no"?>
<!DOCTYPE svg PUBLIC "-//W3C//DTD SVG 20010904//EN"
 "http://www.w3.org/TR/2001/REC-SVG-20010904/DTD/svg10.dtd">
<svg version="1.0" xmlns="http://www.w3.org/2000/svg"
 width="832.000000pt" height="832.000000pt" viewBox="0 0 832.000000 832.000000"
 preserveAspectRatio="xMidYMid meet">
<metadata>
Created by potrace 1.14, written by Peter Selinger 2001-2017
</metadata>
<g transform="translate(0.000000,832.000000) scale(0.100000,-0.100000)"
fill="#000000" stroke="none">
<path d="M4028 8314 c-3 -2 -36 -6 -74 -9 -65 -4 -127 -11 -184 -19 -14 -2
-50 -7 -80 -11 -59 -8 -85 -13 -85 -15 0 -1 -14 -3 -32 -6 -18 -2 -76 -14
-130 -25 -54 -12 -106 -22 -115 -23 -10 0 -18 -3 -18 -6 0 -4 -6 -7 -12 -7 -7
-1 -56 -13 -108 -28 -121 -34 -113 -31 -130 -38 -8 -3 -58 -20 -110 -38 -108
-36 -218 -79 -282 -108 -24 -11 -50 -21 -58 -23 -8 -2 -19 -6 -25 -10 -5 -4
-71 -39 -145 -76 -74 -38 -151 -78 -170 -89 -101 -59 -116 -68 -122 -78 -4 -5
-8 -6 -8 -2 0 4 -15 -3 -33 -17 -19 -15 -37 -26 -41 -26 -4 0 -12 -5 -19 -10
-7 -6 -61 -44 -121 -86 -102 -72 -277 -208 -356 -278 -19 -17 -102 -99 -185
-181 -202 -202 -372 -408 -510 -615 -28 -41 -52 -77 -55 -80 -3 -3 -25 -39
-49 -80 -24 -41 -51 -86 -60 -100 -8 -14 -31 -54 -49 -90 -19 -36 -39 -71 -44
-77 -6 -7 -7 -13 -2 -13 5 0 5 -4 -1 -8 -11 -8 -45 -77 -118 -242 -34 -76
-131 -336 -142 -380 -2 -8 -11 -40 -20 -70 -17 -57 -54 -194 -60 -220 -38
-164 -56 -258 -69 -362 -3 -21 -7 -53 -10 -70 -24 -144 -31 -271 -30 -543 0
-232 7 -402 19 -445 2 -8 6 -42 10 -75 7 -68 30 -217 45 -285 5 -25 12 -56 14
-70 2 -14 9 -43 14 -65 6 -22 13 -51 16 -65 3 -14 12 -50 21 -80 9 -30 18 -62
20 -71 8 -36 95 -289 124 -364 50 -124 144 -329 155 -337 6 -4 7 -8 2 -8 -5 0
-4 -6 2 -13 6 -6 29 -48 52 -92 66 -128 214 -366 232 -373 4 -2 8 -8 8 -14 0
-11 51 -81 63 -86 4 -2 7 -9 7 -16 0 -17 35 -48 44 -39 4 4 4 0 0 -10 -3 -9
-2 -17 3 -17 6 0 15 -12 21 -26 7 -14 17 -22 22 -19 6 4 9 2 8 -3 -3 -10 83
-122 94 -122 5 0 8 -4 8 -8 0 -21 282 -311 410 -422 79 -68 291 -235 350 -275
25 -16 47 -32 50 -35 11 -13 270 -170 279 -170 5 0 11 -4 13 -8 3 -9 388 -204
388 -197 0 2 28 -9 63 -24 78 -36 253 -99 267 -98 3 0 15 -5 28 -12 13 -7 33
-14 45 -17 12 -2 51 -13 87 -25 36 -11 72 -22 80 -24 8 -2 52 -12 96 -24 101
-26 275 -61 329 -67 22 -2 51 -6 65 -9 47 -10 130 -20 275 -32 174 -14 686 -7
780 11 26 5 113 17 145 21 23 2 90 13 135 21 60 11 123 24 145 29 14 3 36 8
50 11 21 4 48 10 83 19 4 2 8 3 10 5 1 1 9 3 17 5 8 1 35 8 60 15 25 7 52 13
60 15 8 2 27 8 43 14 15 6 27 7 27 4 0 -4 5 -2 12 5 7 7 18 12 25 12 32 0 349
125 494 194 53 25 101 46 107 46 6 0 12 3 14 8 2 4 32 22 68 40 36 18 93 49
127 70 34 20 96 57 138 82 41 25 75 48 75 53 0 4 6 7 13 7 7 0 22 8 33 17 10
10 37 30 59 44 51 33 226 169 300 234 32 28 74 64 94 80 42 36 166 160 200
201 79 93 189 285 183 316 -1 5 2 8 7 8 5 0 11 10 14 23 2 12 14 58 25 102 34
128 35 133 37 280 3 147 -8 234 -45 357 -11 38 -20 70 -20 73 0 3 -9 21 -20
40 -11 20 -20 42 -20 50 0 8 -4 15 -10 15 -5 0 -10 6 -10 13 0 14 -69 129 -99
163 -12 13 -21 27 -21 30 0 6 -66 79 -100 110 -14 13 -42 39 -64 58 -143 132
-406 247 -621 271 -56 6 -229 7 -260 1 -11 -2 -40 -7 -65 -11 -50 -7 -189 -44
-205 -53 -5 -4 -15 -7 -22 -8 -26 -4 -162 -75 -230 -121 -61 -41 -167 -129
-249 -208 -57 -56 -286 -217 -290 -205 -1 3 -10 -2 -20 -10 -60 -49 -294 -142
-469 -186 -16 -4 -32 -8 -35 -9 -3 -1 -30 -5 -60 -9 -30 -5 -64 -10 -75 -13
-97 -20 -412 -19 -515 2 -14 3 -36 8 -50 10 -73 13 -94 17 -154 35 -36 10 -66
16 -66 13 0 -3 -6 -1 -12 4 -7 6 -31 16 -53 22 -55 17 -64 21 -197 85 -287
138 -531 349 -703 606 -27 41 -53 77 -56 80 -18 15 -143 290 -172 380 -31 93
-42 138 -61 240 -3 14 -7 35 -10 47 -16 72 -30 394 -18 417 3 5 6 29 7 55 3
48 16 126 40 244 26 129 163 446 237 552 4 5 24 31 43 58 19 26 35 50 35 53 0
3 6 11 13 18 6 7 30 35 52 62 86 106 277 279 363 329 17 11 32 24 32 29 0 5 3
6 7 3 3 -4 21 4 38 18 27 20 245 133 260 134 3 1 22 8 43 16 41 18 229 75 240
74 4 -1 9 0 12 1 27 10 227 42 248 39 4 -1 9 0 12 1 10 4 255 6 264 2 5 -3 29
-6 55 -7 128 -8 375 -66 486 -115 11 -4 58 -26 105 -48 47 -21 89 -39 94 -39
5 -1 12 -5 15 -10 9 -12 111 -73 122 -73 5 0 9 -4 9 -9 0 -10 39 -27 53 -23 5
1 6 -2 3 -7 -4 -5 14 -22 39 -38 24 -15 44 -34 45 -40 0 -7 5 -13 11 -13 19 0
184 -166 260 -261 81 -100 209 -288 209 -305 0 -7 4 -14 8 -16 4 -1 36 -60 70
-130 42 -85 72 -134 92 -148 110 -78 244 -65 323 32 74 92 71 189 -9 341 -9
15 -12 27 -9 27 7 0 -130 265 -145 280 -14 14 -70 102 -70 109 0 5 -3 11 -7
13 -5 2 -28 30 -53 63 -25 33 -56 73 -70 90 -40 48 -242 248 -278 275 -18 14
-43 33 -55 44 -12 10 -33 26 -47 34 -14 9 -29 22 -33 29 -4 7 -14 13 -22 13
-7 0 -15 4 -17 8 -12 29 -327 199 -473 254 -98 38 -184 68 -193 68 -4 0 -29 6
-57 14 -50 14 -152 36 -190 42 -130 17 -217 96 -230 209 -12 97 45 195 136
237 35 16 139 18 199 4 35 -8 70 -15 100 -21 57 -11 236 -58 245 -65 21 -15
116 -32 154 -26 91 12 168 78 192 163 14 51 14 52 4 108 -9 49 -25 81 -61 119
-24 25 -94 64 -128 70 -12 3 -122 35 -146 42 -8 3 -16 5 -17 5 -2 0 -17 5 -35
10 -18 6 -44 12 -58 15 -14 2 -36 7 -50 10 -14 3 -34 8 -45 11 -35 8 -50 11
-55 13 -3 1 -8 2 -12 1 -4 0 -31 4 -60 10 -29 5 -71 12 -93 14 -22 3 -56 7
-75 10 -185 24 -506 23 -725 -1 -85 -10 -132 -6 -179 17 -166 78 -175 304 -16
404 40 25 70 33 165 41 297 24 607 24 800 0 17 -2 57 -6 89 -10 33 -4 105 -16
160 -27 56 -11 110 -21 121 -23 11 -2 20 -5 20 -6 0 -1 11 -3 25 -4 14 -2 32
-5 40 -8 13 -6 89 -24 130 -33 39 -8 336 -111 420 -146 97 -40 339 -158 420
-205 94 -54 317 -198 330 -213 3 -3 28 -22 55 -40 28 -19 52 -38 55 -41 22
-25 93 -70 131 -83 104 -35 223 14 275 115 9 17 19 57 21 89 8 82 -26 151
-105 210 -31 24 -59 46 -62 49 -3 3 -27 21 -53 40 -27 19 -57 43 -68 53 -10 9
-22 17 -25 17 -5 0 -93 59 -104 70 -3 3 -18 13 -35 23 -16 10 -78 47 -137 82
-131 79 -334 185 -354 185 -8 0 -14 5 -14 10 0 6 -8 10 -18 10 -10 0 -22 4
-28 8 -5 5 -40 21 -79 37 -93 37 -136 55 -160 67 -12 5 -27 10 -35 12 -8 2
-22 6 -30 9 -22 10 -201 67 -220 71 -8 2 -22 6 -30 9 -19 8 -244 63 -290 72
-19 3 -44 8 -55 10 -97 18 -136 25 -170 30 -23 3 -51 7 -63 10 -12 2 -55 7
-95 11 -39 3 -85 8 -102 11 -42 6 -652 13 -657 7z m-1423 -2124 c-3 -5 -12
-10 -18 -10 -7 0 -6 4 3 10 19 12 23 12 15 0z m-315 -114 c0 -2 -7 -7 -16 -10
-8 -3 -12 -2 -9 4 6 10 25 14 25 6z m-660 -400 c0 -2 -17 -16 -37 -31 l-38
-26 35 30 c34 31 40 35 40 27z m-210 -190 c0 -2 -8 -10 -17 -17 -16 -13 -17
-12 -4 4 13 16 21 21 21 13z m-220 -230 c0 -2 -8 -10 -17 -17 -16 -13 -17 -12
-4 4 13 16 21 21 21 13z m-30 -40 c0 -2 -8 -10 -17 -17 -16 -13 -17 -12 -4 4
13 16 21 21 21 13z m-30 -39 c0 -2 -10 -12 -22 -23 l-23 -19 19 23 c18 21 26
27 26 19z"/>
<path d="M5972 6808 c-144 -69 -176 -274 -58 -375 59 -51 81 -68 102 -83 64
-46 223 -188 293 -264 97 -103 142 -155 181 -206 64 -81 83 -100 124 -120 110
-53 248 -10 304 95 9 17 17 35 18 40 12 57 13 77 4 120 -12 60 -78 151 -230
320 -151 167 -435 415 -535 467 -57 30 -147 33 -203 6z"/>
<path d="M7383 6789 c-68 -12 -163 -86 -163 -126 0 -7 -4 -13 -8 -13 -5 0 -9
-6 -10 -12 0 -7 -3 -34 -5 -59 -4 -34 1 -62 19 -104 12 -32 27 -61 32 -64 7
-5 102 -133 127 -173 6 -8 28 -42 49 -74 21 -33 37 -60 35 -60 -2 -1 3 -10 12
-20 38 -43 249 -451 249 -481 0 -21 67 -86 109 -107 36 -19 60 -24 106 -22 71
3 101 14 149 56 45 40 66 82 73 146 6 58 -3 94 -57 210 -21 45 -41 91 -45 103
-3 11 -11 21 -16 21 -5 0 -9 6 -9 13 0 10 -60 129 -90 177 -5 8 -37 62 -71
120 -34 58 -77 126 -96 153 -18 26 -49 69 -68 97 -76 109 -129 173 -147 178
-10 2 -18 8 -18 12 0 19 -105 38 -157 29z"/>
</g>
</svg>
