<svg xmlns="http://www.w3.org/2000/svg" xmlns:xlink="http://www.w3.org/1999/xlink" width="100" height="103.966" viewBox="0 0 100 103.966">
  <defs>
    <linearGradient id="linear-gradient" x1="-0.012" y1="0.564" x2="0.999" y2="0.362" gradientUnits="objectBoundingBox">
      <stop offset="0" stop-color="#0b7beb"/>
      <stop offset="1" stop-color="#00baff"/>
    </linearGradient>
    <linearGradient id="linear-gradient-2" x1="0.5" y1="1" x2="0.5" gradientUnits="objectBoundingBox">
      <stop offset="0" stop-color="#008df2"/>
      <stop offset="1" stop-color="#0846ef"/>
    </linearGradient>
    <linearGradient id="linear-gradient-3" x1="1" y1="0.5" x2="0" y2="0.5" gradientUnits="objectBoundingBox">
      <stop offset="0" stop-color="#149dff"/>
      <stop offset="1" stop-color="#0aa1ff"/>
    </linearGradient>
  </defs>
  <g id="Conduit" transform="translate(-133.666 -378.745)">
    <path id="Path_5" data-name="Path 5" d="M148.889,393.973a51.981,51.981,0,0,0-.842,72.647l0-.006a37.387,37.387,0,0,1,52.9-52.8,2.218,2.218,0,0,0,.2.212,23.1,23.1,0,0,1,3.531,4.133,21.776,21.776,0,0,1,2.615,4.595,2.886,2.886,0,0,0,5.42-1.987q-.35-.955-.77-1.884h.019A28.911,28.911,0,0,0,190.087,402.2a2.879,2.879,0,0,1,.881-5.69,34.972,34.972,0,0,1,3.591.755l-.035-.027q1.18.313,2.342.713a2.885,2.885,0,1,0,1.851-5.465,40.26,40.26,0,0,0-5.009-1.358v-.01a40.632,40.632,0,0,0-6.21-.768l-.065,0H187.4l-.089,0h-.014l-.1,0h-.011l-.255-.009h-.044c-.412-.012-.826-.02-1.24-.02-.186,0-.373,0-.56,0h-.168q-.994.015-1.888.073-1.362.087-2.6.249a2.881,2.881,0,0,1-.745-5.713c1.029-.133,2.024-.232,2.979-.294q1.506-.1,2.858-.1h.514l.211,0h.142l.166,0h.081l.222,0h.026l.248.007h.03l.218.007.085,0,.163.007.138.006.109,0,.194.01.053,0,.248.014h0l.245.015.057,0h.014a46.1,46.1,0,0,1,15.469,3.777h.027a46.08,46.08,0,0,1,10.549,6.418,2.881,2.881,0,1,0,3.635-4.471,52.01,52.01,0,0,0-7.777-5.219l.014-.015a51.811,51.811,0,0,0-18.913-6.017c-.2-.023-.407-.047-.611-.068l-.281-.028q-.42-.043-.84-.078l-.121-.01q-2.087-.17-4.195-.17c-.088,0-.112,0-.181,0h-.022a51.835,51.835,0,0,0-36.545,15.225Zm56.96,8.611a2.88,2.88,0,1,1,3.365-4.675,40.528,40.528,0,0,1,4.686,3.932l0-.006a40.389,40.389,0,0,1,4.033,4.611,2.879,2.879,0,0,1-4.607,3.455,34.683,34.683,0,0,0-3.47-3.934l.006,0-.006-.006a34.842,34.842,0,0,0-4.012-3.372Zm16.314-.162a2.882,2.882,0,0,1,4.561-3.523,52.442,52.442,0,0,1,6.71,11.411,2.883,2.883,0,1,1-5.305,2.257,45.685,45.685,0,0,0-5.966-10.145Z" transform="translate(0 0)" fill-rule="evenodd" fill="url(#linear-gradient)"/>
    <path id="Path_6" data-name="Path 6" d="M148.08,409.894a37.389,37.389,0,0,0-.839,52.007l0,0c.278.29.556.58.842.865a51.98,51.98,0,0,0,73.512,0c.07-.069.137-.142.206-.212l-5.088-5c-1.224.022-2.258.048-3,.048-2.832,0-5.579-.1-8.306-.192a37.179,37.179,0,0,0,3.836-7.192l-8.262-8.115-.022.023a22.8,22.8,0,1,1,0-32.238l.217.223,0,0c-.074-.074-.144-.15-.218-.223a37.389,37.389,0,0,0-52.876,0Z" transform="translate(0.809 4.715)" fill-rule="evenodd" fill="url(#linear-gradient-2)"/>
    <path id="Path_7" data-name="Path 7" d="M164.664,407.943a37.388,37.388,0,0,0,53.023,52.726l0,0,0,0,0,0,0,0,0,0,.094-.1,0,0,0,0,.006-.006,0,0,0,0,0,0,0,0,0,0,0,0,0,0,0,0,0,0,0,0,0,0,0,0,0,0,0,0,0,0,0,0,0,0,0,0,0,0,0,0,0,0,0,0,0,0,0,0,0,0,0,0a14.6,14.6,0,0,0-20.849-20.431c-.072.072-.142.146-.212.218a22.794,22.794,0,0,1-32.165-32.3Z" transform="translate(4.715 6.817)" fill-rule="evenodd" fill="url(#linear-gradient-3)"/>
  </g>
</svg>
